<svg width="61" height="61" viewBox="0 0 61 61" fill="none" xmlns="http://www.w3.org/2000/svg">
<path d="M27.6375 40.002C27.3844 40.0084 27.1327 39.9636 26.8975 39.8701C26.6622 39.7767 26.4484 39.6366 26.2687 39.4582L17.3625 30.552C17.0106 30.2002 16.813 29.723 16.813 29.2254C16.813 28.7279 17.0106 28.2507 17.3625 27.8989C17.7143 27.547 18.1915 27.3494 18.689 27.3494C19.1866 27.3494 19.6638 27.547 20.0156 27.8989L27.6 35.4832L41.8593 21.252C42.0336 21.0778 42.2404 20.9396 42.468 20.8453C42.6956 20.751 42.9395 20.7025 43.1859 20.7025C43.4323 20.7025 43.6762 20.751 43.9038 20.8453C44.1314 20.9396 44.3383 21.0778 44.5125 21.252C44.6867 21.4262 44.8249 21.633 44.9191 21.8606C45.0134 22.0882 45.0619 22.3322 45.0619 22.5786C45.0619 22.8249 45.0134 23.0689 44.9191 23.2965C44.8249 23.5241 44.6867 23.7309 44.5125 23.9051L28.9593 39.4582C28.6078 39.8069 28.1326 40.0024 27.6375 40.002Z" fill="#FFB300"/>
<path d="M30.9562 56.6051C25.8272 56.5974 20.8128 55.0873 16.5325 52.2614C12.2522 49.4355 8.89357 45.4176 6.87149 40.704C4.8494 35.9905 4.25249 30.7878 5.15449 25.7387C6.05648 20.6897 8.41787 16.0155 11.9469 12.2936C15.476 8.5717 20.018 5.96521 25.012 4.79612C30.006 3.62703 35.2331 3.94657 40.0474 5.71525C44.8618 7.48394 49.0526 10.6243 52.102 14.7483C55.1514 18.8723 56.9259 23.7994 57.2062 28.9207C57.2343 29.4166 57.0645 29.9035 56.7341 30.2744C56.4037 30.6452 55.9395 30.8698 55.4437 30.8988C55.1966 30.914 54.9489 30.8802 54.715 30.7992C54.4811 30.7182 54.2655 30.5917 54.0808 30.4269C53.896 30.2622 53.7457 30.0625 53.6385 29.8394C53.5313 29.6163 53.4693 29.3741 53.4562 29.127C53.2018 24.4263 51.4795 19.9238 48.5317 16.2535C45.5839 12.5831 41.5591 9.92981 37.024 8.66714C32.489 7.40447 27.6721 7.59604 23.2517 9.21488C18.8312 10.8337 15.0299 13.7983 12.3829 17.6911C9.73588 21.584 8.37655 26.209 8.4963 30.915C8.61606 35.6211 10.2089 40.171 13.0504 43.9242C15.892 47.6773 19.8392 50.4447 24.3363 51.8366C28.8333 53.2286 33.6537 53.1749 38.1187 51.6832C40.9528 50.74 43.5694 49.2386 45.8139 47.2678C48.0585 45.297 49.8856 42.8966 51.1874 40.2082C51.2862 39.9731 51.432 39.7607 51.6157 39.5839C51.7994 39.407 52.0173 39.2695 52.256 39.1798C52.4947 39.0901 52.7492 39.05 53.0039 39.0619C53.2586 39.0739 53.5082 39.1377 53.7375 39.2494C53.9667 39.3612 54.1707 39.5185 54.337 39.7118C54.5034 39.9051 54.6285 40.1302 54.7049 40.3735C54.7812 40.6169 54.8071 40.8732 54.781 41.1268C54.7549 41.3805 54.6773 41.6262 54.553 41.8488C53.0381 44.9884 50.9082 47.7919 48.2897 50.0931C45.6713 52.3944 42.6174 54.1465 39.3093 55.2457C36.6162 56.1454 33.7955 56.6044 30.9562 56.6051Z" fill="#0074FF"/>
</svg>
