<svg width="61" height="61" viewBox="0 0 61 61" fill="none" xmlns="http://www.w3.org/2000/svg">
<path d="M37.7123 48.176C37.7123 50.165 36.922 52.0728 35.5155 53.4793C34.109 54.8858 32.2013 55.676 30.2123 55.676C28.2233 55.676 26.3155 54.8858 24.909 53.4793C23.5025 52.0728 22.7123 50.165 22.7123 48.176" stroke="black" stroke-width="3.75" stroke-linecap="round" stroke-linejoin="round"/>
<path d="M14.1647 45.676C12.9411 45.4163 11.8592 44.7075 11.1326 43.6893C10.406 42.671 10.0874 41.4175 10.2397 40.176L12.7397 19.901C13.378 15.7326 15.5 11.9348 18.7153 9.20639C21.9306 6.47794 26.023 5.00237 30.2398 5.05097C34.4565 5.00237 38.5488 6.47794 41.764 9.20639C44.9795 11.9348 47.1015 15.7326 47.7398 19.901L50.2398 40.176C50.393 41.414 50.0778 42.6645 49.3563 43.6823C48.6348 44.6998 47.5588 45.411 46.3398 45.676C35.7588 48.1623 24.7456 48.1623 14.1647 45.676Z" stroke="black" stroke-width="3.75" stroke-linecap="round" stroke-linejoin="round"/>
</svg>
