<svg width="60" height="60" viewBox="0 0 60 60" fill="none" xmlns="http://www.w3.org/2000/svg">
<path d="M30.3018 31.95C30.1268 31.925 29.9018 31.925 29.7018 31.95C25.3018 31.8 21.8018 28.2 21.8018 23.775C21.8018 19.25 25.4518 15.575 30.0018 15.575C34.5268 15.575 38.2018 19.25 38.2018 23.775C38.1768 28.2 34.7018 31.8 30.3018 31.95Z" stroke="#292D32" stroke-width="3.75" stroke-linecap="round" stroke-linejoin="round"/>
<path d="M46.8495 48.4503C42.3995 52.5253 36.4995 55.0003 29.9995 55.0003C23.4994 55.0003 17.5994 52.5253 13.1494 48.4503C13.3994 46.1003 14.8994 43.8003 17.5744 42.0003C24.4244 37.4503 35.6245 37.4503 42.4245 42.0003C45.0995 43.8003 46.5995 46.1003 46.8495 48.4503Z" stroke="#292D32" stroke-width="3.75" stroke-linecap="round" stroke-linejoin="round"/>
<path d="M30 55C43.807 55 55 43.807 55 30C55 16.1929 43.807 5 30 5C16.1929 5 5 16.1929 5 30C5 43.807 16.1929 55 30 55Z" stroke="#292D32" stroke-width="3.75" stroke-linecap="round" stroke-linejoin="round"/>
</svg>
