<svg width="60" height="60" viewBox="0 0 60 60" fill="none" xmlns="http://www.w3.org/2000/svg">
<path d="M15.0989 19.4301C8.94965 20.8214 5.87505 21.5171 5.14355 23.8693C4.41205 26.2215 6.50813 28.6728 10.7003 33.5748L11.7848 34.843C12.9761 36.236 13.5717 36.9325 13.8397 37.7942C14.1076 38.656 14.0176 39.5853 13.8375 41.444L13.6735 43.136C13.0397 49.6765 12.7228 52.9468 14.6379 54.4005C16.553 55.8543 19.4317 54.5287 25.1893 51.878L26.6788 51.192C28.3148 50.4388 29.1328 50.062 30 50.062C30.8673 50.062 31.6853 50.4388 33.3213 51.192L34.8108 51.878C40.5683 54.5287 43.447 55.8543 45.3623 54.4005C47.2773 52.9468 46.9603 49.6765 46.3265 43.136M49.2998 33.5748C53.492 28.6728 55.588 26.2215 54.8565 23.8693C54.125 21.5171 51.0503 20.8214 44.9013 19.4301L43.3103 19.0701C41.5628 18.6747 40.6893 18.4771 39.9878 17.9445C39.286 17.412 38.8363 16.6048 37.9363 14.9906L37.117 13.5209C33.9505 7.8403 32.3673 5 30 5C27.6328 5 26.0495 7.84033 22.8829 13.521" stroke="#F5D161" stroke-width="3.75" stroke-linecap="round"/>
</svg>
