<svg width="60" height="60" viewBox="0 0 60 60" fill="none" xmlns="http://www.w3.org/2000/svg">
<path d="M46.2085 41.9185C44.6178 42.2988 42.9573 42.5 41.25 42.5C29.514 42.5 20 32.986 20 21.25C20 20.0413 20.1009 18.8562 20.2948 17.7026C20.2043 17.7897 20.1108 17.8698 20.0124 17.9445C19.3108 18.4771 18.4371 18.6748 16.6897 19.0702L15.0989 19.4301C8.94965 20.8214 5.87505 21.5171 5.14355 23.8694C4.41205 26.2218 6.50813 28.6728 10.7003 33.5748L11.7848 34.843C12.9761 36.236 13.5717 36.9325 13.8397 37.7943C14.1076 38.656 14.0176 39.5853 13.8375 41.444L13.6735 43.136C13.0397 49.6765 12.7228 52.9468 14.6379 54.4005C16.5529 55.8543 19.4317 54.529 25.1893 51.878L26.6788 51.192C28.3148 50.4388 29.1328 50.0623 30 50.0623C30.8673 50.0623 31.6853 50.4388 33.3213 51.192L34.8108 51.878C40.5683 54.529 43.447 55.8543 45.3623 54.4005C47.2773 52.9468 46.9603 49.6765 46.3265 43.136L46.2085 41.9185Z" fill="#F5D161"/>
<path opacity="0.5" d="M22.8827 13.521L22.0634 14.9906C21.1636 16.6049 20.7136 17.412 20.0121 17.9445C20.1106 17.8698 20.2041 17.7896 20.2945 17.7026C20.1007 18.8562 19.9998 20.0413 19.9998 21.25C19.9998 32.986 29.5136 42.5 41.2499 42.5C42.9571 42.5 44.6174 42.2988 46.2084 41.9185L46.1624 41.444C45.9821 39.5853 45.8921 38.656 46.1601 37.7942C46.4281 36.9325 47.0236 36.236 48.2149 34.843L49.2996 33.5748C53.4916 28.6728 55.5876 26.2215 54.8561 23.8693C54.1246 21.5171 51.0501 20.8214 44.9009 19.4301L43.3101 19.0701C41.5626 18.6747 40.6889 18.4771 39.9874 17.9445C39.2859 17.412 38.8359 16.6049 37.9361 14.9906L37.1169 13.5209C33.9501 7.8403 32.3669 5 29.9999 5C27.6326 5 26.0494 7.84033 22.8827 13.521Z" fill="#F5D161"/>
</svg>
