<svg width="60" height="60" viewBox="0 0 60 60" fill="none" xmlns="http://www.w3.org/2000/svg">
<path d="M22.5 37.5L37.5 22.5" stroke="#1C274C" stroke-width="3.75" stroke-linecap="round"/>
<path d="M38.75 36.25C38.75 37.6307 37.6307 38.75 36.25 38.75C34.8693 38.75 33.75 37.6307 33.75 36.25C33.75 34.8693 34.8693 33.75 36.25 33.75C37.6307 33.75 38.75 34.8693 38.75 36.25Z" fill="#1C274C"/>
<path d="M26.25 23.75C26.25 25.1307 25.1307 26.25 23.75 26.25C22.3693 26.25 21.25 25.1307 21.25 23.75C21.25 22.3693 22.3693 21.25 23.75 21.25C25.1307 21.25 26.25 22.3693 26.25 23.75Z" fill="#1C274C"/>
<path d="M35.0093 10H24.9908C15.5452 10 10.8225 10 7.88813 12.9289C5.69153 15.1214 5.13926 18.3143 5.00041 23.7361C4.98261 24.4312 5.55303 24.9867 6.22691 25.163C8.37686 25.7252 9.96303 27.6777 9.96303 30C9.96303 32.3223 8.37686 34.2748 6.22691 34.837C5.55303 35.0133 4.98261 35.5687 5.00041 36.264C5.13926 41.6857 5.69153 44.8785 7.88813 47.071M45 10.251C48.2715 10.5693 50.4713 11.2913 52.112 12.9289C54.3085 15.1214 54.8608 18.3143 54.9995 23.7361C55.0175 24.4312 54.447 24.9867 53.773 25.163C51.6233 25.7252 50.037 27.6777 50.037 30C50.037 32.3223 51.6233 34.2748 53.773 34.837C54.447 35.0133 55.0175 35.5687 54.9995 36.264C54.8608 41.6857 54.3085 44.8785 52.112 47.071C49.1775 50 44.4548 50 35.0093 50H24.9908C22.0716 50 19.6036 50 17.5 49.9135" stroke="#1C274C" stroke-width="3.75" stroke-linecap="round"/>
</svg>
